<svg xmlns="http://www.w3.org/2000/svg" viewBox="0 0 1000 500" fill="none">
  <g fill="#ffffff">
    <path d="M70 120h210l50 60-20 70-60 30H90l-40-60 20-100z"/>
    <path d="M280 320l90 20 30 60-40 70-70 10-50-80 40-80z"/>
    <path d="M430 120l80-20 110 20 40 60-20 60-90 20-120-40-20-80z"/>
    <path d="M520 260l110 10 80 60-40 110-120 10-60-80 30-110z"/>
    <path d="M660 120l200 20 90 60-30 70-120 20-110-40-70-70 40-60z"/>
    <path d="M760 300l140 20 50 60-40 60-120 10-60-50 30-100z"/>
  </g>
</svg>
